<svg width="900" height="900" fill="none" xmlns="http://www.w3.org/2000/svg"><path d="M739.873 188.659a16.877 16.877 0 0 1 5.483 9.699 912.036 912.036 0 0 1 11.592 146.57c.093 110.79-19.47 199.78-58.157 264.496-100.667 169.122-236.895 210.627-242.647 212.309a16.847 16.847 0 0 1-9.483 0c-5.752-1.682-141.974-43.187-242.658-212.333-38.67-64.692-58.234-153.682-58.14-264.472a911.922 911.922 0 0 1 11.592-146.57 16.87 16.87 0 0 1 15.816-13.866c1.049-.049 105.853-5.189 156.593-25.276 50.312-20.437 109.298-76.4 109.886-76.962a16.875 16.875 0 0 1 23.299-.003c.593.563 59.695 56.572 110.029 77.022 50.668 20.055 155.406 25.17 156.461 25.219a16.877 16.877 0 0 1 10.334 4.167ZM379.951 750.276a374.575 374.575 0 0 0 54.575 30.543V466.878H189.567c7.879 44.541 21.338 88.276 43.427 125.23a491.72 491.72 0 0 0 146.957 158.168ZM187.769 433.125h246.757V131.626c-23.73 19.486-58.819 45.401-92.097 58.918-44.879 17.769-122.269 24.675-153.77 26.836a891.975 891.975 0 0 0-4.032 216.062 16.825 16.825 0 0 1 3.142-.317Zm318.747 54.586-13.228-20.833-25.009.001v3.424l19.058 30.013 19.179-12.605Zm44.464 109.427c27.12 0 43.047-8.427 43.626-11.897-.579-3.471-16.506-11.898-43.626-11.898-27.163 0-43.098 8.455-43.626 11.914.528 3.426 16.463 11.881 43.626 11.881Zm28.075-57.953-4.028 20.231c.834.177 1.656.399 2.466.664a74.617 74.617 0 0 1 17.95 5.978l5.35-26.873h-21.738Zm15.551 77.768v-12.085a121.052 121.052 0 0 1-87.252 0v12.1c.445 2.856 14.417 11.898 43.626 11.898 29.21 0 43.182-9.042 43.626-11.913Zm-43.626-59.474c3.084 0 5.746.077 8.218.183l3.678-18.477h-19.314a7.926 7.926 0 0 1-6.697-3.679l-21.845-34.403-19.179 12.605 29.358 46.233a131.853 131.853 0 0 1 25.781-2.462Zm-28.121 192.797A491.64 491.64 0 0 0 669.8 592.133c22.096-36.963 35.558-80.708 43.439-125.254H512.082l35.841 56.442h106.655a7.937 7.937 0 0 1 7.781 9.482l-11.887 59.695a7.93 7.93 0 0 1-7.78 6.382H610.47v18.089c0 19.076-30.835 27.762-59.49 27.762-28.654 0-59.489-8.686-59.489-27.762v-31.728a7.64 7.64 0 0 1 .166-1.61c.801-8.384 7.78-14.619 17.783-18.909l-41.161-64.821V780.82a374.78 374.78 0 0 0 54.58-30.544Zm94.113-211.091-7.912 39.745c.357.758.656 1.541.894 2.345l.057 1.741h26.174l8.726-43.831h-27.939Zm98.069-106.06c1.054.007 2.105.113 3.139.317a891.823 891.823 0 0 0-4.029-216.062c-31.495-2.159-108.863-9.056-153.637-26.779-33.361-13.552-68.489-39.487-92.235-58.98v301.504h246.762Zm-123.19-192.577a76.027 76.027 0 0 0-74.641 61.135 76.028 76.028 0 0 0 96.597 87.66 76.031 76.031 0 0 0 31.721-126.526 75.945 75.945 0 0 0-53.677-22.269Zm47.817 110.593a58.597 58.597 0 0 1-3.333-5.12 8.432 8.432 0 0 0-5.126-4.136 8.427 8.427 0 0 0-6.537.808 8.428 8.428 0 0 0-3.965 5.26 8.422 8.422 0 0 0 1.023 6.507 76.53 76.53 0 0 0 5.984 8.909 58.903 58.903 0 0 1-71.768 0h.042a76.742 76.742 0 0 0 6.005-8.902 8.44 8.44 0 0 0-2.942-11.767 8.447 8.447 0 0 0-6.537-.808 8.45 8.45 0 0 0-5.126 4.136 58.715 58.715 0 0 1-3.355 5.113 58.883 58.883 0 0 1 0-69.294 58.564 58.564 0 0 1 3.355 5.113 8.428 8.428 0 0 0 5.126 4.135 8.43 8.43 0 0 0 9.053-3.035 8.425 8.425 0 0 0 1.598-6.389 8.43 8.43 0 0 0-1.172-3.15 76.656 76.656 0 0 0-6.005-8.902 58.897 58.897 0 0 1 71.768 0 76.703 76.703 0 0 0-6.048 8.902 8.445 8.445 0 0 0 .429 9.537 8.434 8.434 0 0 0 9.051 3.035 8.452 8.452 0 0 0 5.126-4.133 58.554 58.554 0 0 1 3.354-5.113 58.883 58.883 0 0 1 0 69.294Zm-354.54-81.762a97.782 97.782 0 0 0-27.179 54.554 139.72 139.72 0 0 0 .429 45.188 26.023 26.023 0 0 0 21.265 21.265 147.254 147.254 0 0 0 24.401 2.053c6.957.013 13.904-.535 20.773-1.639a95.947 95.947 0 0 0 81.732-81.732 140.286 140.286 0 0 0-.429-45.188 26.017 26.017 0 0 0-21.264-21.264 140.314 140.314 0 0 0-45.188-.43 97.425 97.425 0 0 0-54.54 27.193Zm-2.679 104.334a9.14 9.14 0 0 1-7.447-7.426 134.852 134.852 0 0 1-1.828-18.191l27.467 27.467a135.045 135.045 0 0 1-18.192-1.85Zm99.587-114.431a9.138 9.138 0 0 1 7.447 7.418v-.007a134.97 134.97 0 0 1 1.828 18.199l-27.474-27.467c6.101.204 12.182.824 18.199 1.857Zm7.819 48a79.472 79.472 0 0 1-66.86 66.79l-48.33-48.331a79.471 79.471 0 0 1 66.859-66.79l48.331 48.331ZM312.54 344.65a8.443 8.443 0 0 0 5.977-2.475l5.288-5.289 2.475 2.476a8.455 8.455 0 0 0 11.955 0 8.454 8.454 0 0 0 0-11.955l-2.476-2.475 4.923-4.922 2.475 2.467a8.449 8.449 0 0 0 11.954 0 8.44 8.44 0 0 0 2.476-5.977 8.47 8.47 0 0 0-.643-3.235 8.462 8.462 0 0 0-1.833-2.742l-2.475-2.468 5.266-5.267a8.454 8.454 0 0 0 .01-11.942 8.454 8.454 0 0 0-11.942-.033l-5.288 5.288-2.476-2.475a8.449 8.449 0 0 0-11.954 0 8.453 8.453 0 0 0 0 11.954l2.475 2.475-4.922 4.923-2.475-2.469a8.445 8.445 0 0 0-11.955 0 8.46 8.46 0 0 0-2.475 5.977 8.452 8.452 0 0 0 2.475 5.977l2.476 2.469-5.288 5.288a8.445 8.445 0 0 0-1.833 9.212 8.454 8.454 0 0 0 7.81 5.218Zm14.119 299.874a75.94 75.94 0 0 1-68.899-60.923 75.944 75.944 0 1 1 68.899 60.923Zm64.044-84.178a58.789 58.789 0 0 0-10.639-26.215 58.442 58.442 0 0 0-10.647 26.215h21.286Zm-10.639 43.093a58.797 58.797 0 0 0 10.639-26.216h-21.286a58.441 58.441 0 0 0 10.647 26.216Zm-11.955-81.536a58.815 58.815 0 0 0-27.425-11.575v50.019H352.4a75.203 75.203 0 0 1 15.709-38.444ZM352.4 577.224h-11.716v50.018a58.82 58.82 0 0 0 27.425-11.575 75.2 75.2 0 0 1-15.709-38.443Zm-28.592-16.877v-50.019a58.82 58.82 0 0 0-27.425 11.575 75.194 75.194 0 0 1 15.709 38.444h11.716Zm0 16.877h-11.716a75.191 75.191 0 0 1-15.709 38.443 58.82 58.82 0 0 0 27.425 11.575v-50.018Zm-28.733-16.877a58.443 58.443 0 0 0-10.646-26.215 58.774 58.774 0 0 0-10.64 26.215h21.286Zm-10.646 43.092a58.447 58.447 0 0 0 10.646-26.215h-21.286a58.779 58.779 0 0 0 10.64 26.215ZM568.38 301.373a8.44 8.44 0 0 1 3.198 5.613l.021.029a78.691 78.691 0 0 1-.021 18.958 8.433 8.433 0 0 1-8.368 7.397 8.435 8.435 0 0 1-8.382-9.479c.61-4.913.61-9.882 0-14.795a8.439 8.439 0 0 1 7.32-9.43 8.441 8.441 0 0 1 6.232 1.707Zm60.515 7.723a8.435 8.435 0 0 0-1.707-6.231 8.442 8.442 0 0 0-15.043 4.121 77.316 77.316 0 0 0 0 18.986 8.443 8.443 0 0 0 2.785 5.282 8.444 8.444 0 0 0 6.638 2.053h-.021a8.44 8.44 0 0 0 7.348-9.444 60.102 60.102 0 0 1 0-14.767Z" fill="#000"/></svg>